<svg width="209" height="34" viewBox="0 0 209 34" fill="none" xmlns="http://www.w3.org/2000/svg">
<g clip-path="url(#clip0_914_2062)">
<path d="M208.003 2.92957C205.509 1.15991 202.703 0.244575 199.648 0.0615074C199.336 0.000484772 199.086 0.00048477 198.837 0.00048477C198.463 -0.0605378 198.089 0.0615074 197.715 0.0615074C195.782 0.0615074 193.911 0.427643 192.103 1.22094C189.796 2.1973 187.926 3.72286 186.679 5.91968C185.494 7.8724 185.058 10.0082 185.307 12.266C185.432 13.5475 185.743 14.768 186.305 15.9274C186.679 16.7817 187.177 17.514 187.801 18.2462C188.362 18.9175 188.923 19.5887 189.484 20.199C190.046 20.8702 190.607 21.5415 191.168 22.2127C191.791 22.945 192.415 23.6773 193.038 24.4095C193.6 25.0808 194.098 25.752 194.161 26.6063C194.161 26.8504 194.161 27.0945 194.161 27.3996C194.161 27.5827 194.098 27.7658 194.036 27.9488C193.911 28.5591 193.6 29.1083 193.163 29.5354C192.415 30.2067 191.542 30.4508 190.607 30.5118C190.17 30.5118 189.796 30.5118 189.36 30.5118C187.489 30.3897 185.868 29.7795 184.559 28.437C184.185 28.0709 183.811 27.6437 183.748 27.0945C183.623 26.4233 183.312 26.1792 182.688 26.2402C182.252 26.3012 182.002 26.5453 181.815 26.9725C181.379 28.1319 181.005 29.2303 180.568 30.3897C180.506 30.5118 180.506 30.5728 180.631 30.6338C181.005 30.8779 181.379 31.122 181.753 31.3661C183.686 32.5255 185.806 33.1968 188.113 33.4409C188.487 33.5019 188.923 33.4409 189.297 33.5629C189.921 33.5629 190.544 33.5629 191.168 33.5629C191.542 33.4409 191.978 33.5019 192.353 33.4409C195.096 33.1358 197.528 32.2204 199.648 30.4508C200.708 29.5354 201.581 28.498 202.266 27.2776C202.89 26.0571 203.264 24.7757 203.451 23.4332C203.7 21.4804 203.264 19.7108 202.204 18.0632C201.456 16.9648 200.708 15.8664 199.835 14.89C198.899 13.8526 198.089 12.8152 197.154 11.7778C196.281 10.8015 195.47 9.7641 194.909 8.60467C194.348 7.20115 194.41 5.91968 195.283 4.69923C196.094 3.66184 197.216 3.23468 198.525 3.11264C198.962 3.11264 199.336 3.11264 199.772 3.11264C201.768 3.23468 203.389 4.02798 204.573 5.61457C204.76 5.85866 204.947 6.16377 205.01 6.5299C205.01 6.89604 205.259 7.20115 205.571 7.3232C205.945 7.44524 206.257 7.3232 206.569 7.14013C206.756 6.95706 206.88 6.77399 207.005 6.5299C207.379 5.49252 207.753 4.39411 208.127 3.35673C208.19 3.11264 208.127 3.05162 208.003 2.92957Z" fill="#E31F26"/>
<path d="M186.74 3.11288C187.301 3.05186 187.551 2.68572 187.551 2.19754C187.551 1.58731 187.114 1.16016 186.429 1.16016C182.688 1.16016 179.009 1.16016 175.268 1.16016C174.956 1.16016 174.831 1.22118 174.769 1.52629C172.213 7.26242 169.719 13.0596 167.162 18.7957C166.352 20.6264 165.603 22.396 164.731 24.2267C163.858 26.1184 161.738 27.0337 159.68 26.4845C158.308 26.1184 157.622 24.8369 157.872 23.3114C158.121 22.0299 158.558 20.8094 159.057 19.589C161.239 14.5851 163.483 9.58128 165.728 4.5164C166.04 3.72311 166.539 3.23493 167.474 3.1739C168.097 3.11288 168.409 2.6247 168.284 2.01447C168.16 1.52629 167.786 1.22118 167.225 1.22118C165.105 1.22118 163.047 1.22118 160.927 1.22118C158.87 1.22118 156.812 1.22118 154.817 1.22118C154.63 1.22118 154.38 1.22118 154.193 1.2822C153.757 1.40425 153.383 1.70936 153.383 2.13652C153.32 2.56368 153.507 2.86879 154.006 3.1739C154.505 3.41799 154.63 3.66208 154.38 4.21129C153.009 7.26242 151.699 10.3746 150.265 13.4257C149.08 16.0497 148.208 18.7957 148.02 21.6638C147.833 24.6539 149.455 27.3999 152.198 28.6814C156.001 30.39 159.929 30.8171 163.982 30.0239C170.841 28.6203 175.891 24.8369 178.884 18.5516C181.066 13.9749 182.999 9.27616 185.057 4.63845C185.369 3.72311 185.805 3.1739 186.74 3.11288Z" fill="#E31F26"/>
<path d="M92.9031 16.354C93.4019 16.293 93.6513 15.9268 93.6513 15.4386C93.6513 15.0115 93.3396 14.5843 92.9031 14.4623C92.7161 14.4013 92.529 14.4013 92.342 14.4013C88.3515 14.4013 84.4234 14.4013 80.433 14.4013C80.2459 14.4013 80.1212 14.4013 79.9342 14.4013C79.3107 14.4623 78.9366 14.9505 78.9989 15.4997C79.0613 15.9268 79.3107 16.1099 79.6848 16.293C80.3706 16.5981 80.4953 16.9642 80.1836 17.6355C79.9342 18.1847 79.7471 18.7339 79.4977 19.2831C78.9366 20.5645 78.4377 21.846 77.7519 23.0665C77.0037 24.2869 76.0061 25.2633 74.5096 25.6294C72.7015 26.0566 71.0803 25.8125 69.771 24.3479C68.8357 23.3106 68.711 22.0291 68.8981 20.6866C69.8333 15.1335 72.3897 10.3738 76.5672 6.46831C78.5001 4.63763 80.7447 3.4782 83.4258 3.17309C84.6105 3.05105 85.7328 2.929 86.8551 3.29514C88.6009 3.78332 90.2221 4.45457 90.7832 6.40729C90.8456 6.7124 91.1573 6.89547 91.5314 6.89547C92.0302 6.89547 92.4667 6.59036 92.6537 6.10218C93.0278 5.24786 93.4019 4.39354 93.7761 3.4782C93.8384 3.29514 93.8384 3.23411 93.6513 3.11207C90.2221 1.46446 86.6681 0.244006 82.8023 0.0609386C80.3706 -0.0611067 78.0013 -8.4077e-05 75.5696 0.488097C67.0899 2.31878 60.4184 8.60411 58.2984 16.8422C57.862 18.4898 57.5502 20.1374 57.7996 21.785C58.4231 26.1786 62.1642 29.4738 66.7158 29.6569C69.5839 29.779 72.3897 29.3518 75.1332 28.2534C75.4449 28.1313 75.5696 28.1924 75.6943 28.4365C75.819 28.8026 76.0684 28.8636 76.3802 28.8636C77.8766 28.8636 79.4354 28.8636 80.9318 28.8636C82.4906 28.8636 84.0493 28.8636 85.6081 28.8636C85.9198 28.8636 86.0445 28.7416 86.1692 28.4975C87.728 24.9582 89.2868 21.4189 90.8456 17.8795C91.4067 17.0252 91.9055 16.476 92.9031 16.354Z" fill="#E31F26"/>
<path d="M56.3025 11.84C55.9907 11.901 55.7413 12.0841 55.6166 12.3282C55.2425 12.9994 54.619 13.1825 53.8708 13.1825C52.0002 13.1825 50.0674 13.1825 48.1968 13.1825C48.0721 13.1825 48.0098 13.1825 47.8851 13.1215C49.2568 10.0703 50.5662 6.95818 51.9379 3.90705C52.0002 3.78501 52.0626 3.72398 52.1873 3.72398C54.5566 3.72398 56.9883 3.72398 59.3576 3.72398C59.6694 3.72398 59.8564 3.90705 59.9188 4.21216C59.9811 4.33421 59.9811 4.51728 59.9811 4.63932C60.1059 5.31057 60.7294 5.61568 61.3529 5.37159C61.6646 5.24955 61.8517 4.94443 62.0387 4.63932C62.5999 3.41887 63.0987 2.19842 63.6598 0.916942C63.7222 0.855919 63.7222 0.794897 63.7222 0.672852C63.6598 0.672852 63.5975 0.672852 63.5351 0.672852C55.866 0.672852 48.1968 0.672852 40.4653 0.672852C40.3406 0.672852 40.1536 0.672852 40.0289 0.733874C39.4677 0.855919 39.156 1.16103 39.0936 1.58819C39.0313 2.01535 39.2807 2.38148 39.7795 2.62558C40.5277 2.99171 40.6524 3.29682 40.3406 4.0291C36.9113 11.5959 33.6067 19.1627 30.2398 26.7295C29.928 27.4618 29.6163 28.1941 29.2422 28.9873C29.4292 28.9873 29.5539 28.9873 29.6786 28.9873C37.9713 28.9873 46.264 28.9873 54.5566 28.9873C54.619 28.9873 54.6813 28.9873 54.7437 28.9873C54.8684 28.9873 54.9307 28.9263 54.9931 28.8043C55.4295 27.7669 55.9283 26.6685 56.4272 25.6311C56.6766 25.0209 56.2401 24.3496 55.5542 24.2886C55.0554 24.2276 54.619 24.4107 54.3696 24.8378C53.8708 25.6311 53.1849 25.9362 52.2496 25.8752C49.5686 25.8752 46.8875 25.8752 44.2064 25.8752C43.5205 25.8752 42.897 25.8752 42.2112 25.8752C42.2112 25.8142 42.2112 25.8142 42.2112 25.7531C43.6452 22.5189 45.0793 19.2847 46.5134 16.0505C46.5757 15.9285 46.7004 15.8675 46.8251 15.8675C49.0074 15.8675 51.1273 15.8675 53.3096 15.8675C53.6837 15.8675 53.9331 16.0506 53.9331 16.4167C53.9331 16.5387 53.9331 16.6608 53.9331 16.7828C53.9955 17.5151 54.6813 17.8202 55.3048 17.4541C55.4919 17.332 55.6789 17.149 55.8036 16.9659C56.4272 15.6234 56.9883 14.2809 57.6118 12.9384C57.7989 12.5723 57.6742 12.2061 57.3624 11.901C57.0507 11.7179 56.6766 11.7179 56.3025 11.84Z" fill="#E31F26"/>
<path d="M148.705 7.07908C148.955 6.89602 149.079 6.65193 149.204 6.40784C149.578 5.37045 149.952 4.33307 150.326 3.35671C150.389 3.17364 150.389 3.05159 150.202 2.92955C148.955 2.01421 147.583 1.34296 146.149 0.854778C143.967 0.18353 141.784 -0.0605607 139.477 0.0614845C136.859 0.18353 134.427 0.915801 132.245 2.38034C126.945 5.98068 125.947 13.3644 130.062 18.1852C131.871 20.321 133.679 22.4568 135.487 24.5316C135.799 24.8977 136.048 25.3248 136.235 25.752C136.796 27.0335 136.298 28.8031 135.238 29.6574C134.552 30.2067 133.741 30.3897 132.868 30.4507C130.811 30.5728 128.94 30.1456 127.381 28.8642C126.696 28.315 126.134 27.7047 125.947 26.7894C125.823 26.1792 125.137 25.9961 124.576 26.3012C124.264 26.4843 124.139 26.7284 124.014 27.0335C123.827 27.5827 123.64 28.1319 123.391 28.8031C123.329 28.437 123.204 28.1319 123.142 27.8878C121.209 19.8328 119.276 11.7168 117.343 3.66182C117.156 2.92955 117.218 2.86852 117.842 2.50239C118.528 2.13625 118.528 1.28194 117.904 0.854778C117.592 0.671711 117.281 0.610688 116.969 0.610688C113.789 0.610688 110.609 0.610688 107.429 0.610688C107.117 0.610688 106.993 0.671711 106.806 0.915801C101.506 9.15385 96.1436 17.3919 90.7814 25.691C90.345 26.3622 89.7838 26.8504 88.9109 26.9725C88.225 27.0335 87.9133 27.6437 88.1003 28.2539C88.225 28.6811 88.6615 28.9252 89.1603 28.9252C90.9061 28.9252 92.6519 28.9252 94.3978 28.9252C94.5225 28.9252 94.6472 28.9252 94.7719 28.8642C95.2707 28.7421 95.6448 28.437 95.7071 27.9488C95.7695 27.5827 95.5201 27.2165 95.0213 26.9725C94.5225 26.7284 94.3978 26.4233 94.7095 25.9351C96.3306 23.3111 98.0141 20.7481 99.6352 18.1242C99.7599 17.9411 99.8846 17.8801 100.134 17.8801C102.94 17.8801 105.746 17.8801 108.551 17.8801C108.801 17.8801 108.926 17.9411 108.988 18.2462C109.611 20.8092 110.235 23.3721 110.796 25.9351C110.983 26.7284 110.983 26.7284 110.235 27.1555C109.611 27.5217 109.549 28.315 110.173 28.7421C110.484 28.9252 110.796 28.9862 111.17 28.9862C114.974 28.9862 118.777 28.9862 122.643 28.9862C122.705 28.9862 122.83 28.9862 122.892 28.9862C123.079 28.9862 123.079 29.0472 123.017 29.1693C122.892 29.4744 122.83 29.7795 122.705 30.0846C122.58 30.3287 122.643 30.4507 122.892 30.6338C125.386 32.4035 128.192 33.2578 131.309 33.4409V33.5019C131.995 33.5019 132.681 33.5019 133.367 33.5019V33.4409C134.988 33.3798 136.485 33.1357 137.981 32.5865C141.161 31.4271 143.53 29.3523 144.84 26.2402C145.588 24.3485 145.9 22.3958 145.401 20.382C145.089 19.1005 144.341 17.9411 143.53 16.9037C141.971 14.7679 140.163 12.8152 138.48 10.8015C137.856 10.0692 137.357 9.21488 136.983 8.29954C136.173 6.28579 137.108 4.15 139.103 3.35671C140.163 2.92955 141.223 2.92955 142.283 3.05159C144.154 3.29568 145.713 4.08898 146.772 5.67556C146.96 5.91966 147.084 6.16375 147.084 6.46886C147.334 7.26215 148.144 7.56727 148.705 7.07908ZM107.99 14.5238C106.057 14.5238 104.125 14.5238 102.129 14.5238C103.626 12.144 105.06 9.88612 106.556 7.50624C106.743 8.17749 106.868 8.78772 106.993 9.39794C107.367 11.0456 107.741 12.6932 108.177 14.3408C108.24 14.4628 108.24 14.5238 107.99 14.5238Z" fill="#E31F26"/>
<path d="M34.5423 12.3892C36.2257 9.82627 36.5375 7.08025 35.5399 4.21219C34.7917 2.0764 32.9211 0.794922 30.4271 0.794922C27.3719 0.794922 24.3167 0.794922 21.1992 0.794922C17.9569 0.794922 14.777 0.794922 11.5348 0.794922C11.2854 0.794922 11.0983 0.794922 10.9113 0.855944C10.4748 0.97799 10.1007 1.34413 10.0384 1.71026C9.97602 2.0764 10.2254 2.44253 10.6619 2.68662C11.223 2.93071 11.2854 3.1748 11.036 3.72401C7.41964 12.0231 3.74094 20.3222 0.124592 28.6823C-0.0624609 29.0484 -0.0624608 29.0484 0.373995 29.0484C4.1774 29.0484 7.9808 29.0484 11.7842 29.0484C12.0336 29.0484 12.283 29.0484 12.4701 28.9263C12.8442 28.7433 13.1559 28.4992 13.2183 28.072C13.2806 27.6449 13.0312 27.3398 12.6571 27.1567C12.2207 26.9126 12.1583 26.7906 12.3454 26.3024C13.53 23.6174 14.7147 20.9324 15.837 18.1864C15.9617 17.9423 16.0864 17.8202 16.3358 17.8202C19.0169 17.8202 21.698 17.8813 24.3791 17.8202C28.806 17.8202 32.1729 15.9285 34.5423 12.3892ZM21.5109 14.0979C20.8874 14.3419 20.2016 14.525 19.4534 14.525C18.8298 14.525 18.144 14.525 17.4581 14.525C17.9569 13.3046 18.5181 12.1451 19.0169 10.9857C20.0145 8.66684 21.0745 6.409 22.0721 4.09014C22.1968 3.84605 22.2591 3.78503 22.5709 3.78503C24.6908 3.78503 25.9378 4.94446 26.0625 6.95821C26.3119 9.76525 24.192 13.0605 21.5109 14.0979Z" fill="#E31F26"/>
</g>
<defs>
<clipPath id="clip0_914_2062">
<rect width="209" height="33.9286" fill="white"/>
</clipPath>
</defs>
</svg>
